<svg xmlns="http://www.w3.org/2000/svg" version="1.1" xmlns:xlink="http://www.w3.org/1999/xlink" width="200" height="200"><svg xmlns="http://www.w3.org/2000/svg" version="1.1" xmlns:xlink="http://www.w3.org/1999/xlink" viewBox="0 0 200 200"><rect width="200" height="200" fill="url('#gradient')"></rect><defs><linearGradient id="SvgjsLinearGradient1006" gradientTransform="rotate(98 0.5 0.5)"><stop offset="0%" stop-color="#212822"></stop><stop offset="100%" stop-color="#005d0e"></stop></linearGradient></defs><g><g fill="#fbfcf9" transform="matrix(4.477976817702845,0,0,4.477976817702845,11.13580078239562,131.83779063822723)" stroke="#f7f7f7" stroke-width="0.2"><path d="M4.73-14.22L4.73 0L1.31 0L1.31-14.22L4.73-14.22ZM16.06-8.30L16.06-5.66L10.54-5.66L10.54 0L7.11 0L7.11-14.22L16.62-14.22L16.62-11.57L10.54-11.57L10.54-8.30L16.06-8.30ZM27.00-8.30L27.00-5.66L21.47-5.66L21.47 0L18.05 0L18.05-14.22L27.56-14.22L27.56-11.57L21.47-11.57L21.47-8.30L27.00-8.30ZM32.41-14.22L32.41-2.64L38.38-2.64L38.38 0L28.98 0L28.98-14.22L32.41-14.22Z"></path></g></g></svg><style>@media (prefers-color-scheme: light) { :root { filter: none; } }
@media (prefers-color-scheme: dark) { :root { filter: none; } }
</style></svg>